<?xml version="1.0" encoding="UTF-8" standalone="no"?>
<svg width="20px" height="20px" viewBox="0 0 20 20" version="1.1" xmlns="http://www.w3.org/2000/svg" xmlns:xlink="http://www.w3.org/1999/xlink">
    <!-- Generator: sketchtool 3.7.2 (28276) - http://www.bohemiancoding.com/sketch -->
    <title>8BE09F1A-A9DC-4F38-9D00-52DE2778CA86</title>
    <desc>Created with sketchtool.</desc>
    <defs></defs>
    <g id="0-Style-Guide" stroke="none" stroke-width="1" fill="none" fill-rule="evenodd">
        <g id="0.0.0_Assets" transform="translate(-120.000000, -557.000000)">
            <g id="social-accounts---hover/highlighted" transform="translate(50.000000, 557.000000)">
                <g id="icon_social_instagram_highlighted" transform="translate(70.000000, 0.000000)">
                    <path d="M20,10 C20,15.5228362 15.5230407,20 10,20 C4.47722274,20 0,15.5228362 0,10 C0,4.47716378 4.47722274,0 10,0 C15.5230407,0 20,4.47716378 20,10" id="Instagram-Circle" fill="#2A5B83"></path>
                    <path d="M13.8113357,5 L6.18866432,5 C5.53214412,5 5,5.53078035 5,6.18593678 L5,13.8140632 C5,14.4689469 5.53214412,15 6.18866432,15 L13.8113357,15 C14.4678559,15 15,14.4689469 15,13.8140632 L15,6.18593678 C15,5.53078035 14.4678559,5 13.8113357,5 L13.8113357,5 Z M12.1876279,6.56233805 C12.1876279,6.38995718 12.3275509,6.24976134 12.4999318,6.24976134 L13.4373892,6.24976134 C13.6100428,6.24976134 13.7499659,6.38995718 13.7499659,6.56233805 L13.7499659,7.49979543 C13.7499659,7.67244906 13.6100428,7.81237215 13.4373892,7.81237215 L12.4999318,7.81237215 C12.3275509,7.81237215 12.1876279,7.67244906 12.1876279,7.49979543 L12.1876279,6.56233805 L12.1876279,6.56233805 Z M10.0115921,8.09303658 C11.0736983,8.09303658 11.9347844,8.9522134 11.9347844,10.0115921 C11.9347844,11.0712435 11.0736983,11.9301476 10.0115921,11.9301476 C8.94975861,11.9301476 8.0886725,11.0712435 8.0886725,10.0115921 C8.0886725,8.9522134 8.94975861,8.09303658 10.0115921,8.09303658 L10.0115921,8.09303658 Z M14.0625426,13.7499659 C14.0625426,13.9223468 13.9226195,14.0625426 13.7499659,14.0625426 L6.25003409,14.0625426 C6.07738047,14.0625426 5.93745738,13.9223468 5.93745738,13.7499659 L5.93745738,9.06240624 L7.18749148,9.06240624 C7.02465701,9.2967024 6.96956059,9.73392794 6.96956059,10.0115921 C6.96956059,11.6849412 8.33442435,13.0465319 10.0115921,13.0465319 C11.6890325,13.0465319 13.0538963,11.6849412 13.0538963,10.0115921 C13.0538963,9.73392794 13.0143469,9.30324851 12.8125085,9.06240624 L14.0625426,9.06240624 L14.0625426,13.7499659 L14.0625426,13.7499659 Z" id="Instagram" fill="#FFFFFF"></path>
                </g>
            </g>
        </g>
    </g>
</svg>