<svg data-name="livetype" xmlns="http://www.w3.org/2000/svg" viewBox="0 0 145 45"><title>Download_on_the_App_Store_Badge_UK</title><path d="M133.45 0H9.11a17.22 17.22 0 0 0-2.43.2 8.52 8.52 0 0 0-2.3.71 7.8 7.8 0 0 0-2 1.33 7.11 7.11 0 0 0-2.19 4A13.6 13.6 0 0 0 0 8.46v28a13.6 13.6 0 0 0 .22 2.25 7.05 7.05 0 0 0 2.19 4 7.61 7.61 0 0 0 2 1.33 8.56 8.56 0 0 0 2.3.71 17.53 17.53 0 0 0 2.43.2h126.74a17.3 17.3 0 0 0 2.42-.2 8.69 8.69 0 0 0 2.31-.71 7.61 7.61 0 0 0 2-1.33 7.25 7.25 0 0 0 1.39-1.77 7.06 7.06 0 0 0 .75-2.14 14.14 14.14 0 0 0 .22-2.25v-1-24.82V9.5v-1a14.14 14.14 0 0 0-.22-2.25 7.08 7.08 0 0 0-.75-2.18 7.31 7.31 0 0 0-1.43-1.82 7.81 7.81 0 0 0-2-1.33 8.65 8.65 0 0 0-2.31-.71 17 17 0 0 0-2.42-.2h-2.43z" fill="#b6b6b6"/><path d="M10.23 44H9.14a16.53 16.53 0 0 1-2.26-.18 7.52 7.52 0 0 1-2-.62 6.55 6.55 0 0 1-1.69-1.14 6 6 0 0 1-1.24-1.57 6.12 6.12 0 0 1-.66-1.86 13 13 0 0 1-.2-2.11V9.5v-1a13 13 0 0 1 .2-2.11 6.16 6.16 0 0 1 .66-1.87 6.09 6.09 0 0 1 1.21-1.58 6.75 6.75 0 0 1 1.7-1.15 7.44 7.44 0 0 1 2-.61A16.4 16.4 0 0 1 9.14 1h126.73a16.14 16.14 0 0 1 2.25.18 7.59 7.59 0 0 1 2 .62 6.7 6.7 0 0 1 1.69 1.14 6.3 6.3 0 0 1 1.24 1.58 6.16 6.16 0 0 1 .65 1.86 13.6 13.6 0 0 1 .21 2.12v27.98a13.33 13.33 0 0 1-.21 2.09 6.14 6.14 0 0 1-.65 1.88 6.21 6.21 0 0 1-1.23 1.56 6.56 6.56 0 0 1-1.7 1.15 7.49 7.49 0 0 1-2 .62 16.34 16.34 0 0 1-2.26.18H10.23z" fill="#040503"/><g data-name="&lt;Gruppe&gt;"><g data-name="&lt;Gruppe&gt;" fill="#fff"><path data-name="&lt;Pfad&gt;" d="M33.17 22.84a5.57 5.57 0 0 1 2.65-4.67 5.7 5.7 0 0 0-4.49-2.43c-1.89-.2-3.72 1.13-4.68 1.13s-2.46-1.11-4.06-1.08a6 6 0 0 0-5 3.07c-2.18 3.77-.55 9.3 1.53 12.35 1 1.49 2.26 3.16 3.86 3.1s2.14-1 4-1 2.41 1 4 1 2.73-1.5 3.74-3a12.33 12.33 0 0 0 1.71-3.48 5.38 5.38 0 0 1-3.26-4.99zM30.1 13.74a5.48 5.48 0 0 0 1.25-3.93 5.58 5.58 0 0 0-3.61 1.87 5.22 5.22 0 0 0-1.29 3.78 4.61 4.61 0 0 0 3.65-1.72z"/></g><path d="M52.89 30.53h-5.32l-1.28 3.78H44l5-14h2.34l5 14h-2.17zm-4.77-1.74h4.22l-2.08-6.13h-.06zM67.36 29.22c0 3.17-1.69 5.2-4.25 5.2a3.45 3.45 0 0 1-3.2-1.78v5h-2.15V24.12h2v1.69A3.61 3.61 0 0 1 63.07 24c2.58 0 4.29 2.06 4.29 5.22zm-2.15 0c0-2.06-1.07-3.42-2.69-3.42s-2.67 1.38-2.67 3.42 1.07 3.43 2.67 3.43 2.69-1.35 2.69-3.43zM78.57 29.22c0 3.17-1.69 5.2-4.25 5.2a3.45 3.45 0 0 1-3.2-1.78v5H69V24.12h2v1.69A3.61 3.61 0 0 1 74.28 24c2.59 0 4.29 2.06 4.29 5.22zm-2.15 0c0-2.06-1.07-3.42-2.69-3.42s-2.67 1.38-2.67 3.42 1.07 3.43 2.67 3.43 2.69-1.35 2.69-3.43zM86 30.42c.15 1.39 1.5 2.3 3.34 2.3s3-.91 3-2.16c0-1.08-.76-1.73-2.58-2.18L88 27.94c-2.57-.62-3.76-1.82-3.76-3.77 0-2.41 2.1-4.07 5.08-4.07s5 1.66 5 4.07h-2.1c-.13-1.39-1.28-2.24-3-2.24s-2.84.85-2.84 2.09c0 1 .74 1.57 2.54 2l1.54.38c2.87.68 4.06 1.83 4.06 3.87 0 2.61-2.08 4.25-5.39 4.25-3.1 0-5.19-1.6-5.33-4.13zM99.07 21.71v2.41H101v1.66h-1.93v5.62c0 .87.39 1.28 1.24 1.28a6.53 6.53 0 0 0 .69 0v1.65a5.74 5.74 0 0 1-1.16.1c-2.06 0-2.87-.77-2.87-2.75v-5.9h-1.48v-1.66H97v-2.41zM102.13 29.22C102.13 26 104 24 107 24s4.83 2 4.83 5.22-1.87 5.22-4.83 5.22-4.87-2.01-4.87-5.22zm7.53 0c0-2.2-1-3.5-2.7-3.5s-2.7 1.31-2.7 3.5 1 3.49 2.7 3.49 2.7-1.29 2.7-3.49zM113.51 24.12h2v1.73A2.43 2.43 0 0 1 118 24a3.22 3.22 0 0 1 .72.08v2a2.92 2.92 0 0 0-.94-.13 2.11 2.11 0 0 0-2.18 2.34v6h-2.09zM128.36 31.32c-.28 1.85-2.08 3.12-4.39 3.12-3 0-4.8-2-4.8-5.17S121 24 123.89 24s4.59 1.94 4.59 5v.72h-7.19v.13a2.65 2.65 0 0 0 2.71 2.9 2.3 2.3 0 0 0 2.35-1.43zm-7.07-3h5.09a2.45 2.45 0 0 0-2.5-2.59 2.58 2.58 0 0 0-2.59 2.55z" fill="#fff"/></g><g data-name="&lt;Gruppe&gt;" fill="#fff"><path d="M47.86 9.82c2 0 3.16 1.22 3.16 3.34s-1.16 3.38-3.16 3.38h-2.43V9.82zm-1.38 5.76h1.27A2.11 2.11 0 0 0 50 13.17a2.12 2.12 0 0 0-2.21-2.4h-1.31zM52.19 14A2.405 2.405 0 1 1 57 14a2.4 2.4 0 1 1-4.78 0zm3.75 0c0-1.1-.49-1.74-1.36-1.74s-1.36.64-1.36 1.74.49 1.74 1.36 1.74 1.36-.64 1.36-1.74zM63.32 16.53h-1l-1-3.73h-.08l-1 3.73h-1l-1.4-5.07h1l.91 3.87h.07l1-3.87h1l1 3.87h.08l.9-3.87h1zM65.89 11.47h1v.8h.07a1.52 1.52 0 0 1 1.51-.9 1.65 1.65 0 0 1 1.75 1.88v3.28h-1v-3c0-.81-.35-1.22-1.09-1.22a1.16 1.16 0 0 0-1.21 1.28v3h-1zM71.78 9.49h1v7h-1zM74.17 14A2.415 2.415 0 1 1 79 14a2.4 2.4 0 1 1-4.78 0zm3.75 0c0-1.1-.49-1.74-1.36-1.74S75.2 12.9 75.2 14s.49 1.74 1.36 1.74 1.36-.64 1.36-1.74zM80 15.1c0-.91.68-1.44 1.88-1.51l1.37-.08v-.44c0-.54-.35-.84-1-.84s-.94.2-1.06.56h-1c.1-.87.92-1.43 2.07-1.43s2 .63 2 1.7v3.46h-1v-.71h-.08a1.7 1.7 0 0 1-1.52.8A1.53 1.53 0 0 1 80 15.1zm3.26-.43v-.42l-1.26.08c-.7 0-1 .28-1 .73s.4.72.94.72a1.19 1.19 0 0 0 1.32-1.11zM85.57 14c0-1.6.82-2.61 2.1-2.61a1.67 1.67 0 0 1 1.55.89h.07V9.49h1v7h-1v-.8h-.08a1.76 1.76 0 0 1-1.59.88c-1.24.05-2.05-.97-2.05-2.57zm1 0c0 1.07.51 1.72 1.35 1.72s1.36-.66 1.36-1.72-.53-1.72-1.36-1.72-1.32.65-1.32 1.72zM94.44 14a2.4 2.4 0 1 1 4.78 0 2.4 2.4 0 1 1-4.78 0zm3.75 0c0-1.1-.49-1.74-1.36-1.74s-1.36.64-1.36 1.74.49 1.74 1.36 1.74 1.36-.64 1.36-1.74zM100.56 11.47h1v.8h.07a1.52 1.52 0 0 1 1.51-.9 1.65 1.65 0 0 1 1.75 1.88v3.28h-1v-3c0-.81-.35-1.22-1.09-1.22a1.16 1.16 0 0 0-1.21 1.28v3h-1zM110.51 10.21v1.28h1.1v.84h-1.1v2.6c0 .53.22.76.72.76h.38v.83a3.28 3.28 0 0 1-.54.05c-1.11 0-1.55-.39-1.55-1.37v-2.87h-.8v-.84h.8v-1.28zM113 9.49h1v2.79a1.56 1.56 0 0 1 1.54-.91 1.67 1.67 0 0 1 1.74 1.89v3.27h-1v-3c0-.81-.38-1.22-1.08-1.22a1.18 1.18 0 0 0-1.2 1.27v3h-1zM123.16 15.17a2.06 2.06 0 0 1-2.2 1.47 2.3 2.3 0 0 1-2.33-2.64 2.34 2.34 0 0 1 2.37-2.63c1.41 0 2.26 1 2.26 2.55v.35h-3.58v.06a1.34 1.34 0 0 0 1.32 1.45 1.21 1.21 0 0 0 1.21-.61zm-3.52-1.63h2.56a1.22 1.22 0 0 0-1.2-1.32 1.3 1.3 0 0 0-1.36 1.31z"/></g></svg>