<svg data-name="artwork" xmlns="http://www.w3.org/2000/svg" viewBox="0 0 145 45"><defs><linearGradient id="a" x1="20.64" y1="192.2" x2="1.76" y2="173.32" gradientTransform="matrix(1 0 0 -1 0 202)" gradientUnits="userSpaceOnUse"><stop offset="0" stop-color="#00a0ff"/><stop offset=".01" stop-color="#00a1ff"/><stop offset=".26" stop-color="#00beff"/><stop offset=".51" stop-color="#00d2ff"/><stop offset=".76" stop-color="#00dfff"/><stop offset="1" stop-color="#00e3ff"/></linearGradient><linearGradient id="b" x1="34.18" y1="179.5" x2="6.96" y2="179.5" gradientTransform="matrix(1 0 0 -1 0 202)" gradientUnits="userSpaceOnUse"><stop offset="0" stop-color="#ffe000"/><stop offset=".41" stop-color="#ffbd00"/><stop offset=".78" stop-color="orange"/><stop offset="1" stop-color="#ff9c00"/></linearGradient><linearGradient id="c" x1="24.05" y1="176.92" x2="-1.55" y2="151.31" gradientTransform="matrix(1 0 0 -1 0 202)" gradientUnits="userSpaceOnUse"><stop offset="0" stop-color="#ff3a44"/><stop offset="1" stop-color="#c31162"/></linearGradient><linearGradient id="d" x1="4.33" y1="201.8" x2="15.76" y2="190.37" gradientTransform="matrix(1 0 0 -1 0 202)" gradientUnits="userSpaceOnUse"><stop offset="0" stop-color="#32a071"/><stop offset=".07" stop-color="#2da771"/><stop offset=".48" stop-color="#15cf74"/><stop offset=".8" stop-color="#06e775"/><stop offset="1" stop-color="#00f076"/></linearGradient></defs><title>google-play-badge-uk</title><path d="M139.63 45H5.37A5.52 5.52 0 0 1 0 39.37V5.62A5.52 5.52 0 0 1 5.37 0h134.26A5.52 5.52 0 0 1 145 5.62v33.75a5.52 5.52 0 0 1-5.37 5.63z"/><path d="M139.63.9a4.63 4.63 0 0 1 4.51 4.73v33.75a4.63 4.63 0 0 1-4.51 4.73H5.37a4.63 4.63 0 0 1-4.51-4.73V5.63A4.63 4.63 0 0 1 5.37.9h134.26m0-.9H5.37A5.52 5.52 0 0 0 0 5.63v33.75A5.52 5.52 0 0 0 5.37 45h134.26a5.52 5.52 0 0 0 5.37-5.62V5.63A5.52 5.52 0 0 0 139.63 0z" fill="#b7b7b7"/><path d="M49.46 11.52a3 3 0 0 1-.84 2.25 3.27 3.27 0 0 1-2.48 1 3.48 3.48 0 0 1-3.51-3.53 3.48 3.48 0 0 1 3.51-3.53 3.48 3.48 0 0 1 1.39.29 2.78 2.78 0 0 1 1.06.75l-.59.6a2.28 2.28 0 0 0-1.85-.8 2.61 2.61 0 0 0-2.62 2.7A2.65 2.65 0 0 0 48 13.19a2.12 2.12 0 0 0 .57-1.37h-2.42V11h3.27a2.86 2.86 0 0 1 .04.52zM54.65 8.7h-3.07v2.14h2.77v.81h-2.77v2.15h3.07v.83h-3.94V7.88h3.94zM58.31 14.63h-.87V8.7h-1.89v-.82h4.64v.82h-1.88zM63.55 14.63V7.88h.87v6.75zM68.26 14.63h-.87V8.7h-1.88v-.82h4.64v.82h-1.89zM78.93 13.75a3.5 3.5 0 0 1-4.95 0 3.45 3.45 0 0 1-1-2.5 3.45 3.45 0 0 1 1-2.5 3.49 3.49 0 0 1 4.94 0 3.45 3.45 0 0 1 1 2.5 3.46 3.46 0 0 1-.99 2.5zm-4.31-.57a2.6 2.6 0 0 0 3.67 0 2.64 2.64 0 0 0 .71-1.93 2.64 2.64 0 0 0-.75-1.94 2.6 2.6 0 0 0-3.67 0 2.65 2.65 0 0 0-.75 1.94 2.65 2.65 0 0 0 .79 1.94zM81.14 14.63V7.88h1.06l3.28 5.25v-5.3h.87v6.75h-.91L82 9.12v5.5z" fill="#fff" stroke="#fff" stroke-miterlimit="10" stroke-width=".2"/><path d="M72.77 24.47a4.78 4.78 0 1 0 4.8 4.78 4.72 4.72 0 0 0-4.8-4.78zm0 7.68a2.91 2.91 0 1 1 2.7-2.9 2.77 2.77 0 0 1-2.7 2.91zm-10.48-7.68a4.78 4.78 0 1 0 4.8 4.78 4.72 4.72 0 0 0-4.8-4.78zm0 7.68a2.91 2.91 0 1 1 2.7-2.9 2.77 2.77 0 0 1-2.7 2.91zm-12.46-6.21v2h4.86a4.24 4.24 0 0 1-1.11 2.56 5 5 0 0 1-3.75 1.5 5.4 5.4 0 0 1 0-10.8 5.18 5.18 0 0 1 3.66 1.45l1.43-1.43a7.08 7.08 0 0 0-5.09-2 7.43 7.43 0 1 0 0 14.86A6.79 6.79 0 0 0 55 32a6.71 6.71 0 0 0 1.76-4.75 6.61 6.61 0 0 0-.11-1.27zm51 1.58a4.45 4.45 0 0 0-4.1-3 4.55 4.55 0 0 0-4.51 4.78 4.68 4.68 0 0 0 4.72 4.7 4.76 4.76 0 0 0 4-2.12l-1.64-1.05a2.73 2.73 0 0 1-2.36 1.32 2.43 2.43 0 0 1-2.32-1.45l6.4-2.65zm-6.52 1.6a2.62 2.62 0 0 1 2.5-2.79 1.85 1.85 0 0 1 1.78 1zm-5.2 4.64h2.1V19.69h-2.1zm-3.44-8.21h-.07a3.32 3.32 0 0 0-2.6-1.08A4.79 4.79 0 0 0 83 34a3.26 3.26 0 0 0 2.56-1h.07v.69c0 1.83-1 2.81-2.56 2.81a2.65 2.65 0 0 1-2.41-1.7l-1.83.76a4.56 4.56 0 0 0 4.24 2.83c2.46 0 4.55-1.45 4.55-5v-8.63h-2zm-2.41 6.62a2.91 2.91 0 0 1 0-5.8 2.7 2.7 0 0 1 2.56 2.92 2.67 2.67 0 0 1-2.6 2.87zm27.43-12.47h-5v14.05h2.1v-5.33h2.93a4.37 4.37 0 1 0 0-8.74zm.05 6.78h-3v-4.84h3a2.41 2.41 0 1 1 0 4.82zm13-2a3.94 3.94 0 0 0-3.75 2.15l1.86.78a2 2 0 0 1 1.92-1 2 2 0 0 1 2.21 1.81v.14a4.64 4.64 0 0 0-2.19-.54c-2 0-4.05 1.1-4.05 3.17a3.25 3.25 0 0 0 3.43 3.01 3 3 0 0 0 2.68-1.38h.07v1.09h2v-5.38c.03-2.49-1.84-3.89-4.24-3.89zm-.25 7.71c-.69 0-1.65-.34-1.65-1.19 0-1.09 1.19-1.5 2.23-1.5a3.74 3.74 0 0 1 1.92.47 2.54 2.54 0 0 1-2.57 2.18zm11.91-7.4l-2.41 6.1h-.07l-2.5-6.1h-2.26l3.75 8.52L129.7 38h2.19l5.77-13.26zm-18.91 9h2.1v-14.1h-2.1z" fill="#fff"/><path d="M7.86 8.48a2.25 2.25 0 0 0-.52 1.58v24.88a2.25 2.25 0 0 0 .52 1.58l.08.08 13.94-13.93v-.33L7.94 8.4z" fill="url(#a)"/><path d="M26.52 27.31l-4.65-4.65v-.33l4.65-4.65.1.06 5.5 3.13c1.57.89 1.57 2.35 0 3.25l-5.5 3.13z" fill="url(#b)"/><path d="M26.63 27.25l-4.75-4.75-14 14a1.83 1.83 0 0 0 2.34.07l16.43-9.34" fill="url(#c)"/><path d="M26.63 17.75L10.2 8.41a1.83 1.83 0 0 0-2.34.07l14 14z" fill="url(#d)"/><path d="M26.53 27.15L10.2 36.43a1.87 1.87 0 0 1-2.25 0l-.08.08.08.08a1.87 1.87 0 0 0 2.25 0l16.43-9.34z" opacity=".2" style="isolation:isolate"/><path d="M7.86 36.36a2.25 2.25 0 0 1-.52-1.58v.16a2.25 2.25 0 0 0 .52 1.58l.08-.08zM32.13 24l-5.61 3.19.1.1 5.5-3.13a2 2 0 0 0 1.18-1.62A2.1 2.1 0 0 1 32.13 24z" opacity=".12" style="isolation:isolate"/><path d="M10.2 8.58L32.13 21a2.09 2.09 0 0 1 1.18 1.46 2 2 0 0 0-1.18-1.62L10.2 8.41c-1.57-.89-2.86-.15-2.86 1.65v.16c0-1.8 1.28-2.54 2.86-1.64z" fill="#fff" opacity=".25" style="isolation:isolate"/></svg>